<svg xmlns="http://www.w3.org/2000/svg" viewBox="0 0 500 500"><defs><style>.cls-1{fill:#fcf9f4;}.cls-2{fill:#5fa445;}</style></defs><g id="Шар_1_копія" data-name="Шар 1 копія"><rect class="cls-1" width="500" height="500" rx="82.42"/><path class="cls-2" d="M489.48,338.69c-1.06,27-6,53.49-17.58,78.58C453.49,457,425,486.21,385.55,505.63c-46.72,23-94,23.55-141.31,4.58-22.81-9.15-43.89-22.61-61-41.2-27.26-29.68-44.31-64.19-50-104.24C128,327.12,133.74,291.26,150,257c18.74-39.6,48.05-68,87.63-87.09,23.11-11.12,47.18-15.86,72.11-16.51,21.67-.57,43.53,2.79,63.26,11.66,22.63,10.18,44.64,22.19,62.16,40.72,28.38,30,46.22,65,52,106.06.34,2.42,1,4.81,1.16,7.24C488.79,325.47,489.09,331.92,489.48,338.69Zm-110.74-102c-.94-19.06-5-34.87-13.07-49.55-4.32-7.86-13.61-9.18-19.86-2.93q-8,8.06-15.89,16.28c-7.36,7.73-7.09,7.59-.73,15.87a209.64,209.64,0,0,1,15.16,22c5.83,10,9.39,21.47,5.75,32.62a96.27,96.27,0,0,1-14.83,27.94c-10,13.15-10.66,12.53,2.47,22.9,2.83,2.24,4.65,2.17,7.47,0,7.06-5.41,14.1-11,21.74-15.47,15.62-9.22,31.86-9.32,47.62-.4,7.71,4.36,14.88,9.77,21.92,15.19,3.35,2.58,5.55,2.77,8.47-.3,5.07-5.33,10.45-10.36,15.62-15.6,5.52-5.58,4.78-19.26-2.05-23.27-21.16-12.43-43.62-20.23-68.71-15.91-10.46,1.8-15.66-3.37-13.66-13.88C377.29,246.3,378.13,240.38,378.74,236.71Zm-83.2,73.54c-3.62-3.84-6.68-6.76-9.35-10-18-21.9-23.81-39.67-6.89-67.37,4.16-6.81,9.4-13,14.28-19.32,2.82-3.67,3.4-6.73-.41-10.35-6-5.67-11.44-11.87-17.22-17.74-8.28-8.4-15.27-7.31-20.64,3.48-10.05,20.2-15.12,41.14-9.64,63.82,2.39,9.89-3.45,15.13-13.56,13.33-4.8-.85-9.74-1.69-14.56-1.44-19.25,1-37.05,7-53.63,16.69a15.79,15.79,0,0,0-3.37,24.53c4.38,4.44,9,8.65,13.2,13.26,3.55,3.9,6.3,4.13,10.52.51A138.81,138.81,0,0,1,203.22,306c17.58-10.57,35.42-10.72,52.86.37,6.74,4.29,12.82,9.62,19.51,14,1.9,1.24,5.67,2,7.25.91C287.21,318.4,290.88,314.44,295.54,310.25Zm30.9,56.48c2.45,2.64,4.93,5.15,7.23,7.83,19.59,22.81,24.21,41.86,6.63,69.53a194,194,0,0,1-12.79,17.1c-3.7,4.61-4.71,8.49.32,13.11,6.22,5.72,11.81,12.12,17.75,18.16,6.66,6.75,12.7,6.06,17.55-2.38,12.69-22.09,19-45.38,13-71-2-8.66,3.87-14.21,12.61-12.71,5.24.9,10.61,2,15.85,1.74,19-1,36.59-7.05,53-16.46,8.49-4.86,9.62-13.27,2.86-20.14-4.69-4.77-9.69-9.23-14.16-14.19-3.69-4.09-6.47-4.7-11-.7a116,116,0,0,1-18.49,13.1c-9.54,5.54-19.75,8.77-31.18,7.21-12.18-1.66-22.17-7.63-31.68-14.76-14.73-11-14.69-11.07-26.93,3A9.25,9.25,0,0,0,326.44,366.73Zm-30.73-1.38c-4-3.58-8-7-11.88-10.7-2.82-2.69-5.05-2.36-8.09,0-7.21,5.57-14.41,11.27-22.23,15.89-15.6,9.22-31.85,9.28-47.57.36-7.9-4.47-15.25-10-22.42-15.62-3.62-2.83-5.92-2.83-9,.42-4.57,4.87-9.08,9.93-14.31,14-6.07,4.74-5.64,10.41-3,16,1.35,2.79,4.93,4.85,7.92,6.45,21.76,11.68,44.24,19.66,69.61,14.07,7.51-1.65,11.88,4.91,11.1,13.28-1,11-1.87,22.12-.83,33,1.36,14.3,7,27.5,14.87,39.62,3.83,5.94,7.82,6.3,12.6,1.4,6.39-6.53,12.53-13.32,19.22-19.51,4.81-4.45,3.86-8,.36-12.59-5.65-7.43-11.53-14.84-16-23-9.64-17.66-9.66-35.3,2.9-51.91C284.23,379.62,289.7,373,295.71,365.35Zm15,87.55c6.6-10.52,13-19.73,18.35-29.5,5.58-10.2,3.06-19.84-4.39-28.32-4.37-5-8.9-9.81-14-15.41-6.23,7.27-12.09,13.91-17.71,20.73-4.44,5.38-5.25,12-3.78,18.37C292.2,431.78,300.72,441.48,310.75,452.9Zm-1-229.23c-6,8.66-11.88,16.14-16.68,24.25-6.88,11.62-6.07,22.48,2.95,32.56,16.48,18.44,11.71,18.77,28.71-.06,5.61-6.22,8.75-13.49,6.72-22.05C328.24,244.93,319.39,235,309.73,223.67ZM229.13,358.1c14.1-.79,23.56-9.91,33.5-18,.8-.65.85-3.92.09-4.55-9.9-8.11-19.19-17.71-33.29-17.77s-23.45,9.52-33.38,17.61c-.81.66-.88,3.92-.11,4.58C205.73,348.31,215.36,357.1,229.13,358.1Zm161.83,0c13.72-.93,23.31-9.34,32.9-17.61.72-.62.84-3.34.19-3.92-8.6-7.77-17.4-15.75-29.38-17.34-15.39-2.05-25.53,8.37-36.16,17.06-.7.58-.8,3.36-.15,3.94C367.88,348.6,377.4,357.08,391,358.13ZM172.24,417.62c3.32,17.59,43.52,59.85,59.27,62.77a13.27,13.27,0,0,0-.32-2.57c-4.75-14.23-7.6-28.77-6.85-43.86.18-3.7-1.53-4.62-5.09-5.23-11.46-2-22.85-4.42-34.21-7C180.83,420.83,176.78,419.12,172.24,417.62Zm276.57,2.73c-.44-.56-.89-1.12-1.33-1.69a17.73,17.73,0,0,0-3.05.63c-13.81,5.64-27.88,10-43.06,9.87-1.27,0-3.42,3.39-3.68,5.4-.86,6.8-.57,13.75-1.62,20.51-1.27,8.2-3.45,16.25-5.23,24.37l1.41,1C415.44,464.52,435.06,445.21,448.81,420.35Zm-220.41-224c-22,15.07-40.27,33.37-53.85,56.32a152.09,152.09,0,0,1,45.79-8.86c1.33,0,3.59-2.07,3.74-3.37C225.67,226.17,226.93,211.9,228.4,196.32Zm216,55.31,1-1.5c-13.57-21-31.16-38-51.77-52.83,1.42,15.29,2.59,29.31,4.25,43.27.15,1.32,3.24,2.91,5.18,3.29,11.71,2.29,23.48,4.24,35.22,6.35C440.33,250.58,442.37,251.15,444.42,251.63ZM327.57,340.45l0-3.84c-2.77-1.81-5.77-3.34-8.29-5.46-9.14-7.71-9.08-7.78-17.84-.16-7.72,6.73-7.73,6.85-.12,13.46,9.79,8.5,9.74,8.45,19.81-.3C323,342.56,325.42,341.67,327.57,340.45Zm-35.65,161h35.5c-6.19-6.42-10.95-11.53-16-16.38-.68-.65-3.19-.53-3.92.18C302.66,490,298,495,291.92,501.43Zm3.52-326.26-1,1.53c5,5.36,10.06,10.72,15.76,16.81l16-16.93-1.33-1.41ZM465.81,352.81l3.08-2.41V324.33c-4.84,4.75-8.63,8.08-11.84,11.89-.81,1-.29,3.85.58,5.25C460.09,345.42,463.05,349.05,465.81,352.81Zm-314-27.18V350C167.28,338.05,167.43,337.53,151.8,325.63Z" transform="translate(-60.44 -88.5)"/></g></svg>