<svg xmlns="http://www.w3.org/2000/svg" viewBox="0 0 239.93 268.03"><defs><style>.cls-1{fill:#5fa445;}.cls-2{fill:#104152;}</style></defs><g id="Шар_1_копія" data-name="Шар 1 копія"><path class="cls-1" d="M401.79,300.77c-.52,13.31-2.93,26.34-8.66,38.69A88.36,88.36,0,0,1,350.62,383c-23,11.31-46.3,11.59-69.58,2.25a81.56,81.56,0,0,1-30-20.28c-13.42-14.62-21.81-31.61-24.59-51.33a91.61,91.61,0,0,1,8.2-53.09c9.23-19.5,23.66-33.5,43.15-42.88,11.37-5.47,23.23-7.81,35.5-8.13,10.67-.28,21.44,1.38,31.15,5.74,11.14,5,22,10.93,30.61,20.05,14,14.77,22.75,32,25.6,52.22.17,1.2.49,2.37.57,3.57C401.45,294.26,401.6,297.44,401.79,300.77Zm-54.53-50.21c-.46-9.39-2.45-17.17-6.43-24.4a6,6,0,0,0-9.78-1.44q-4,4-7.82,8c-3.63,3.81-3.5,3.74-.36,7.82a104.84,104.84,0,0,1,7.46,10.81c2.87,4.95,4.62,10.57,2.83,16.07a47.24,47.24,0,0,1-7.3,13.75c-4.94,6.48-5.25,6.17,1.21,11.28,1.4,1.1,2.3,1.07,3.69,0a109.32,109.32,0,0,1,10.7-7.62c7.69-4.53,15.68-4.58,23.44-.19a92.37,92.37,0,0,1,10.8,7.48c1.65,1.27,2.73,1.36,4.17-.15,2.5-2.62,5.15-5.1,7.69-7.68,2.72-2.75,2.35-9.49-1-11.46-10.42-6.12-21.48-10-33.83-7.83-5.15.88-7.71-1.66-6.72-6.84C346.55,255.28,347,252.36,347.26,250.56Zm-41,36.21c-1.78-1.9-3.29-3.33-4.61-4.92-8.88-10.79-11.72-19.54-3.39-33.18a111.13,111.13,0,0,1,7-9.51c1.38-1.8,1.67-3.31-.21-5.09-2.94-2.79-5.63-5.85-8.48-8.74-4.07-4.13-7.51-3.6-10.16,1.72-4.95,9.94-7.44,20.25-4.74,31.42,1.17,4.87-1.7,7.45-6.68,6.56a32.24,32.24,0,0,0-7.17-.71,58.06,58.06,0,0,0-26.41,8.22,7.78,7.78,0,0,0-1.66,12.08c2.16,2.19,4.44,4.26,6.5,6.53,1.75,1.92,3.1,2,5.18.25a69.1,69.1,0,0,1,9.33-6.71c8.66-5.2,17.45-5.27,26,.19,3.32,2.11,6.31,4.73,9.61,6.88.93.62,2.79,1,3.57.45A60.68,60.68,0,0,0,306.3,286.77Zm15.21,27.8c1.21,1.31,2.43,2.54,3.56,3.86,9.65,11.23,11.92,20.61,3.27,34.23a95.22,95.22,0,0,1-6.3,8.43c-1.82,2.27-2.32,4.18.16,6.45,3.06,2.81,5.81,6,8.74,8.94,3.28,3.32,6.25,3,8.64-1.17,6.25-10.88,9.36-22.34,6.4-34.95-1-4.26,1.9-7,6.21-6.26a35.71,35.71,0,0,0,7.8.86,58.14,58.14,0,0,0,26.12-8.11c4.18-2.39,4.73-6.53,1.41-9.91-2.31-2.35-4.78-4.55-7-7-1.81-2-3.18-2.31-5.41-.34a58,58,0,0,1-9.1,6.45c-4.7,2.72-9.73,4.32-15.36,3.55-6-.82-10.92-3.76-15.6-7.27-7.25-5.43-7.23-5.45-13.26,1.48A4.38,4.38,0,0,0,321.51,314.57Zm-15.13-.67c-2-1.77-3.95-3.47-5.84-5.27-1.39-1.33-2.49-1.16-4,0a109.6,109.6,0,0,1-10.94,7.83c-7.68,4.54-15.68,4.57-23.43.17a89.72,89.72,0,0,1-11-7.69c-1.78-1.39-2.91-1.39-4.42.21a64.55,64.55,0,0,1-7,6.9c-3,2.33-2.78,5.13-1.47,7.86.66,1.37,2.43,2.38,3.9,3.17,10.71,5.75,21.78,9.68,34.27,6.93,3.7-.81,5.85,2.42,5.47,6.54a87.49,87.49,0,0,0-.41,16.25c.67,7,3.47,13.54,7.32,19.51,1.89,2.92,3.85,3.1,6.21.68,3.14-3.21,6.16-6.56,9.46-9.61,2.37-2.18,1.9-3.93.18-6.19a91.63,91.63,0,0,1-7.87-11.32c-4.75-8.7-4.76-17.38,1.43-25.56C300.73,320.92,303.42,317.64,306.38,313.9Zm7.41,43.1c3.25-5.18,6.4-9.71,9-14.52,2.75-5,1.51-9.77-2.16-14-2.15-2.45-4.38-4.83-6.89-7.58-3.07,3.58-5.95,6.84-8.72,10.2a10.22,10.22,0,0,0-1.86,9.05C304.66,346.6,308.85,351.38,313.79,357Zm-.5-112.86c-3,4.26-5.85,7.94-8.22,11.94-3.38,5.72-3,11.07,1.45,16,8.12,9.08,5.77,9.24,14.14,0,2.77-3.06,4.31-6.64,3.31-10.86C322.4,254.6,318,249.73,313.29,244.14ZM273.6,310.33c6.94-.39,11.6-4.88,16.5-8.86a2.32,2.32,0,0,0,0-2.24c-4.88-4-9.45-8.72-16.39-8.75s-11.55,4.69-16.44,8.68a2.34,2.34,0,0,0-.05,2.25C262.08,305.51,266.82,309.83,273.6,310.33Zm79.68,0c6.76-.46,11.48-4.6,16.2-8.67a2,2,0,0,0,.09-1.93c-4.23-3.83-8.56-7.75-14.46-8.54-7.58-1-12.57,4.13-17.8,8.4a2,2,0,0,0-.08,1.94C341.92,305.65,346.61,309.82,353.28,310.34ZM245.59,339.63c1.63,8.66,21.43,29.47,29.18,30.91a6.91,6.91,0,0,0-.15-1.27,58.56,58.56,0,0,1-3.38-21.59c.09-1.82-.75-2.28-2.5-2.58-5.65-1-11.25-2.17-16.85-3.42C249.82,341.21,247.82,340.37,245.59,339.63ZM381.77,341l-.66-.83a8.14,8.14,0,0,0-1.5.31c-6.8,2.77-13.73,4.9-21.2,4.85-.63,0-1.69,1.67-1.81,2.66-.43,3.35-.29,6.77-.8,10.1-.63,4-1.7,8-2.58,12l.7.5C365.33,362.72,375,353.21,381.77,341ZM273.24,230.67a87.31,87.31,0,0,0-26.51,27.73A74.62,74.62,0,0,1,269.27,254a2.55,2.55,0,0,0,1.84-1.66C271.9,245.37,272.52,238.34,273.24,230.67ZM379.61,257.9l.47-.74c-6.68-10.34-15.35-18.73-25.49-26,.7,7.53,1.27,14.43,2.09,21.31.07.65,1.59,1.43,2.55,1.62,5.76,1.12,11.56,2.09,17.34,3.13C377.59,257.39,378.59,257.67,379.61,257.9Zm-57.54,43.74,0-1.9a38.76,38.76,0,0,1-4.08-2.68c-4.5-3.8-4.47-3.83-8.79-.08-3.8,3.31-3.8,3.37-.06,6.62,4.83,4.19,4.8,4.16,9.76-.14A17.47,17.47,0,0,1,322.07,301.64ZM304.52,380.9H322c-3.05-3.16-5.4-5.68-7.87-8.07a2,2,0,0,0-1.93.09C309.8,375.27,307.53,377.74,304.52,380.9Zm1.73-160.64-.48.75,7.76,8.28,7.86-8.34-.65-.69Zm83.89,87.46,1.51-1.19V293.7c-2.38,2.34-4.25,4-5.83,5.85-.39.48-.14,1.9.29,2.59C387.32,304.08,388.78,305.87,390.14,307.72ZM235.53,294.34v12C243.15,300.45,243.22,300.2,235.53,294.34Z" transform="translate(-192.44 -209.48)"/><path class="cls-2" d="M400,453.83c5.64-9.67,10.85-18.66,16.11-27.62,1.94-3.31,3.92-6.6,6-9.81,1.61-2.47,4.12-2.85,6.72-2.13s3.53,2.67,3.53,5.29c0,17.45,0,34.91,0,52.36,0,3.71-1.77,5.49-5.08,5.44s-4.87-1.88-4.87-5.63c0-10.87,0-21.73,0-32.6V436l-.75-.25c-2.37,3.87-4.75,7.73-7.09,11.61-3.21,5.35-6.22,10.83-9.62,16.05-2.57,3.94-7.74,3.55-10.32-.65-5-8.22-9.93-16.52-14.89-24.78a5.35,5.35,0,0,0-2.2-2.12v2.92q0,16.47,0,32.94c0,3.87-1.75,5.76-5.14,5.67s-4.68-1.83-4.68-5.75c0-17.13,0-34.25,0-51.38,0-2.8.53-5.15,3.45-6a5.91,5.91,0,0,1,7.32,2.89q9.18,15.74,18.39,31.46C397.72,450.19,398.71,451.73,400,453.83Z" transform="translate(-192.44 -209.48)"/><path class="cls-2" d="M286.14,473.39a42.72,42.72,0,0,1-19.49,4C254.8,477,249,471,247.21,459.94c-.79-4.94-.51-10.06-.56-15.11-.07-8.34,0-16.69,0-25,0-4.1,1.44-5.73,5-5.78,3.76,0,5.17,1.54,5.18,5.9,0,11.31,0,22.62,0,33.93,0,8.71,2.26,12.06,10.23,15.14a6.14,6.14,0,0,0,3.55.2c3.46-.93,6.87-2.08,10.28-3.19,1.88-.6,2.58-1.77,2.56-3.91-.12-14-.07-28.11-.06-42.16,0-4.44,1.3-5.93,5.12-5.91s5.06,1.6,5.07,6.05c0,13.73-.11,27.46.1,41.18a23.28,23.28,0,0,0,2,8.44c.93,2.22,1.84,4.11-.35,5.86s-4.5,1.53-6.72.09A20.49,20.49,0,0,1,286.14,473.39Z" transform="translate(-192.44 -209.48)"/><path class="cls-2" d="M192.45,445.29c0-8.68,0-17.36,0-26,0-4.9,1.67-6.61,6.5-6.54,6.57.1,13.28-.44,19.69.67,14.09,2.46,20.43,18.93,12.72,31.16-3.62,5.75-8.75,8.4-15.18,8.92a105.37,105.37,0,0,1-11.52.15c-2.34-.07-3.06.8-3,3.06.12,5.05.07,10.11,0,15.16,0,3.65-1.69,5.65-4.5,5.67-3,0-4.71-2.09-4.72-5.86C192.43,462.86,192.45,454.07,192.45,445.29Zm9.27-.3c3.41,0,6.25.07,9.08,0a39.68,39.68,0,0,0,5.55-.56c5.89-1,8.83-4.82,8.82-11.18,0-6.9-2.92-11.1-8.84-11.91a90.65,90.65,0,0,0-12.45-.5c-.72,0-2,1.1-2.06,1.72C201.67,429.84,201.72,437.16,201.72,445Z" transform="translate(-192.44 -209.48)"/><path class="cls-2" d="M325.72,448.61c0-7.36-.09-14.72,0-22.08.05-2.39-.58-3.37-3.12-3.23-3.39.18-6.81.11-10.21,0-3.2-.11-5.15-1.89-5.1-4.41s2.08-4.19,5.3-4.2q18.28,0,36.58,0c3.37,0,5.14,1.52,5.22,4.18s-1.68,4.36-5.3,4.44c-3.29.09-6.59.18-9.88,0-2.64-.16-3.33.82-3.31,3.39.11,15,.06,30.09,0,45.14,0,4.19-2.67,6.34-6.6,5.37-3.08-.75-3.64-3.18-3.65-5.85C325.7,463.77,325.72,456.19,325.72,448.61Z" transform="translate(-192.44 -209.48)"/></g></svg>